<?xml version="1.0" encoding="utf-8"?>
<!-- Generator: Adobe Illustrator 27.5.0, SVG Export Plug-In . SVG Version: 6.00 Build 0)  -->
<svg version="1.1" id="Layer_1" xmlns="http://www.w3.org/2000/svg" xmlns:xlink="http://www.w3.org/1999/xlink" x="0px" y="0px"
	 viewBox="0 0 4000 9000" style="enable-background:new 0 0 4000 9000;" xml:space="preserve">
<g>
	<rect style="fill-rule:evenodd;clip-rule:evenodd;fill:#FCFCFC;" width="4000" height="9000"/>
	<g>
		<defs>
			<path id="SVGID_1_" d="M588.466,0c9.561,251.627,75.853,545.377,221.495,889.008
				c440.5,1039.314,564.296,1658.993,405.784,2001.855C1062.669,3221.982,647.123,3294.862,0,3237.898v-4.959
				c645.164,56.849,1059.26-15.337,1211.256-344.141c157.89-341.513,34.072-959.949-405.846-1997.878
				C659.471,546.586,593.006,252.207,583.372,0H588.466z M638.519,0c-2.81,268.871,61.248,588.584,222.71,969.527
				c440.5,1039.314,564.296,1658.99,405.778,2001.855C1109.935,3311.165,676.476,3379.021,0,3313.681v-4.968
				c674.512,65.2,1106.531-1.97,1262.524-339.4c157.885-341.51,34.067-959.946-405.846-1997.878
				C694.932,589.818,630.677,269.461,633.403,0H638.519z M692.687,0c-17.783,284.925,41.92,630.339,219.805,1050.045
				c440.5,1039.314,564.296,1658.99,405.784,2001.855c-158.758,343.411-599.784,409.076-1288.721,340.178L0,3389.147v-4.965
				l30.037,2.984c686.709,68.671,1126.128,3.633,1283.756-337.332c157.885-341.513,34.067-959.949-405.846-1997.881
				C729.776,631.582,669.871,285.526,687.543,0H692.687z M751.271,0c-35.449,299.697,17.481,670.471,212.489,1130.56
				c440.5,1039.317,564.296,1658.993,405.778,2001.858c-158.752,343.408-599.779,409.079-1288.715,340.181
				c-27.54-2.757-54.447-5.396-80.823-7.932v-4.959c26.527,2.55,53.602,5.209,81.299,7.977
				c686.714,68.668,1126.134,3.633,1283.756-337.334c157.885-341.51,34.072-959.946-405.846-1997.875
				C763.933,671.747,710.773,300.326,746.076,0H751.271z M814.423,0c-55.897,313.064-12.247,708.89,200.6,1211.081
				c440.5,1039.314,564.296,1658.99,405.784,2001.855c-158.758,343.411-599.784,409.076-1288.721,340.178
				c-45.648-4.562-89.606-8.819-132.086-12.757v-4.959c42.648,3.946,86.751,8.223,132.567,12.804
				c686.709,68.671,1126.134,3.633,1283.756-337.332c157.885-341.513,34.067-959.949-405.846-1997.881
				C797.372,710.197,753.443,313.713,809.15,0H814.423z M882.612,0c-79.239,324.905-47.842,745.355,183.678,1291.597
				c440.5,1039.317,564.296,1658.995,405.784,2001.858c-158.758,343.408-599.784,409.076-1288.721,340.178
				c-64.271-6.426-125.318-12.281-183.354-17.403v-4.959c58.192,5.136,119.402,11.008,183.835,17.45
				c686.703,68.668,1126.128,3.633,1283.75-337.334c157.885-341.51,34.072-959.946-405.845-1997.875
				C829.984,746.713,798.246,325.588,877.244,0H882.612z M956.31,0c-105.592,335.082-89.88,779.612,161.249,1372.118
				c440.494,1039.314,564.296,1658.99,405.778,2001.855c-158.752,343.411-599.784,409.079-1288.721,340.181
				c-83.516-8.354-161.562-15.738-234.616-21.794v-4.951c73.216,6.071,151.425,13.468,235.098,21.831
				c686.709,68.671,1126.128,3.633,1283.756-337.334c157.885-341.51,34.067-959.946-405.851-1997.878
				C861.672,781.029,845.534,335.812,950.824,0H956.31z M1036.075,0C901,343.436,897.026,811.37,1168.821,1452.636
				c440.5,1039.314,564.296,1658.99,405.778,2001.855c-158.752,343.411-599.779,409.076-1288.715,340.178
				C182.525,3784.336,87.451,3775.458,0,3768.791v-4.959c87.619,6.689,182.856,15.573,286.366,25.925
				c686.709,68.671,1126.128,3.633,1283.75-337.332c157.885-341.513,34.067-959.949-405.845-1997.878
				C892.296,812.851,895.738,344.214,1030.449,0H1036.075z M1122.451,0c-167.764,349.744-196.043,840.262,97.633,1533.154
				c440.506,1039.314,564.301,1658.99,405.784,2001.855c-158.752,343.408-599.779,409.079-1288.721,340.181
				c-123.924-12.396-235.932-22.673-337.147-29.58v-4.959c101.4,6.921,213.564,17.218,337.628,29.625
				c686.709,68.671,1126.128,3.633,1283.756-337.334c157.885-341.51,34.067-959.944-405.846-1997.875
				C921.717,841.829,949.357,350.59,1116.663,0H1122.451z M1216.07,0c-203.684,353.775-261.658,865.902,55.281,1613.672
				c440.5,1039.314,564.296,1658.99,405.784,2001.855c-158.758,343.411-599.784,409.076-1288.721,340.178
				c-145.212-14.52-274.163-26.177-388.415-32.852v-4.965c114.448,6.7,243.567,18.374,388.896,32.906
				c686.709,68.671,1126.128,3.633,1283.756-337.332c157.879-341.513,34.067-959.949-405.851-1997.881
				C949.766,867.575,1006.951,354.698,1210.097,0H1216.07z M1317.957,0c-242.889,355.238-337.191,887.643,4.657,1694.188
				c440.506,1039.317,564.296,1658.996,405.784,2001.858c-158.758,343.408-599.784,409.079-1288.721,340.181
				C272.293,4019.49,126.572,4006.576,0,4000.687v-4.959c126.79,5.914,272.674,18.836,440.159,35.584
				c686.709,68.668,1126.134,3.633,1283.756-337.334c157.885-341.51,34.067-959.946-405.846-1997.875
				C976.192,889.49,1069.431,356.252,1311.654,0H1317.957z M1428.968,0c-285.213,353.747-423.769,904.838-55.086,1774.708
				c440.5,1039.314,564.296,1658.99,405.784,2001.855c-158.758,343.411-599.784,409.079-1288.721,340.181
				C300.466,4097.696,138.047,4083.604,0,4079.19v-4.971c138.288,4.444,300.886,18.556,491.427,37.61
				c686.709,68.671,1126.128,3.633,1283.75-337.332c157.885-341.513,34.072-959.949-405.845-1997.881
				C1000.682,906.828,1137.934,354.889,1422.424,0H1428.968z M1550.737,0c-330.519,348.84-523.534,916.336-125.587,1855.227
				c440.494,1039.314,564.296,1658.993,405.778,2001.855c-158.752,343.408-599.779,409.075-1288.715,340.178
				C327.625,4175.802,148.61,4160.621,0,4158.505v-4.99c148.878,2.172,328.084,17.372,542.689,38.833
				c686.709,68.671,1126.134,3.633,1283.756-337.332c157.885-341.513,34.067-959.949-405.846-1997.878
				C1022.797,918.58,1214.066,350.131,1543.757,0H1550.737z M1684.759,0c-378.143,339.884-638.514,920.822-208.347,1935.745
				c440.5,1039.314,564.296,1658.99,405.784,2001.855c-158.758,343.411-599.784,409.078-1288.721,340.181
				c-239.867-23.983-435.322-40.14-593.476-38.942v-5.021c158.478-1.117,354.124,15.066,593.957,39.049
				c686.709,68.671,1126.128,3.633,1283.75-337.335c157.885-341.51,34.072-959.943-405.845-1997.878
				C1042.014,923.478,1299.933,341.368,1677.135,0H1684.759z M1833.313,0c-426.909,326.03-771.881,916.221-305.632,2016.263
				c440.5,1039.317,564.296,1658.99,405.778,2001.855c-158.752,343.411-599.779,409.076-1288.721,340.178
				C378.266,4331.652,166.589,4314.669,0,4320.415v-5.057c166.964-5.62,378.837,11.394,645.22,38.027
				c686.709,68.671,1126.128,3.633,1283.756-337.332c157.885-341.513,34.067-959.949-405.846-1997.878
				C1057.379,919.294,1399.099,327.76,1825.09,0H1833.313z M1999.264,0c-474.242,306.083-927.801,899.439-420.321,2096.781
				c440.5,1039.314,564.296,1658.993,405.784,2001.855c-158.758,343.408-599.784,409.079-1288.721,340.181
				C401.401,4409.354,173.765,4391.703,0,4403.53v-5.085c174.202-11.663,402.045,6.017,696.488,35.458
				c686.709,68.671,1126.128,3.633,1283.756-337.334c157.885-341.51,34.067-959.943-405.851-1997.875
				C1067.696,903.195,1516.67,308.138,1990.162,0H1999.264z M2186.928,0c-514.645,278.191-1112.957,864.936-556.722,2177.3
				c440.506,1039.314,564.301,1658.99,405.784,2001.855c-158.752,343.411-599.779,409.076-1288.721,340.181
				C422.761,4486.883,179.48,4468.75,0,4488.583v-5.155c180.006-19.589,423.495-1.43,747.75,30.994
				c686.709,68.671,1126.134,3.633,1283.756-337.332c157.885-341.513,34.072-959.949-405.846-1997.881
				C1070.69,869.834,1662.112,280.724,2176.578,0H2186.928z M2401.846,0c-534.198,239.411-1337.229,802.434-720.373,2257.818
				c440.5,1039.314,564.296,1658.993,405.784,2001.855c-158.758,343.408-599.784,409.079-1288.721,340.178
				c-356.497-35.648-615.01-54.039-798.537-23.772v-5.295c184.154-29.911,442.935-11.453,799.018,24.156
				c686.709,68.671,1126.128,3.633,1283.756-337.332c157.879-341.513,34.067-959.949-405.851-1997.878
				C1062.165,809.277,1854.097,242.638,2389.89,0H2401.846z M0,4661.413c186.36-43.375,459.772-25.004,850.286,14.044
				c686.703,68.671,1126.128,3.633,1283.75-337.334c157.885-341.51,34.067-959.946-405.846-1997.878
				C1088.205,830.281,1972.782,278.073,2505.754,52.181c46.622-19.765,90.518-37.011,130.451-52.181h13.966
				c-43.152,16.267-91.223,34.996-142.508,56.729c-531.326,225.198-1413.16,775.77-774.921,2281.607
				c440.5,1039.314,564.296,1658.99,405.778,2001.855c-158.752,343.411-599.779,409.079-1288.715,340.181
				C458.742,4641.264,185.593,4622.93,0,4666.806V4661.413z"/>
		</defs>
		<clipPath id="SVGID_00000004509078484592356790000004078411599976053911_">
			<use xlink:href="#SVGID_1_"  style="overflow:visible;"/>
		</clipPath>
		
			<linearGradient id="SVGID_00000101786580997617830350000011359244719620435094_" gradientUnits="userSpaceOnUse" x1="1324.9712" y1="4716.1064" x2="1325.201" y2="-0.1064">
			<stop  offset="0" style="stop-color:#FC67FA"/>
			<stop  offset="0.47" style="stop-color:#FFD4F7"/>
			<stop  offset="1" style="stop-color:#39D5FF"/>
		</linearGradient>
		
			<rect style="clip-path:url(#SVGID_00000004509078484592356790000004078411599976053911_);fill:url(#SVGID_00000101786580997617830350000011359244719620435094_);" width="2650.171" height="4749.27"/>
	</g>
	<g>
		<defs>
			<path id="SVGID_00000168795934123850947970000008959511226421756319_" d="M4000,8101.834v-6.183
				c-285.744-219.229-425.04-439.759-383.209-692.875c30.064-181.971,153.586-380.957,383.209-608.537v-6.824
				c-232.657,229.842-357.718,430.758-388.084,614.549C3569.604,7658.051,3710.735,7880.674,4000,8101.834 M4000,8203.506v-6.004
				c-344.53-240.639-516.756-479.166-470.867-756.934c33.686-203.903,184.675-429.16,470.867-692.092v-6.588
				c-289.226,265.095-441.76,492.203-475.742,697.869C3477.876,7720.508,3651.944,7961.036,4000,8203.506z M4000,8300.116v-5.88
				c-402.717-260.931-608.169-515.449-558.519-815.882c36.972-223.785,215.265-473.302,558.519-770.119v-6.454
				c-346.315,298.93-526.126,550.232-563.389,775.767C3386.479,7780.976,3593.768,8037.42,4000,8300.116z M4000,8392.826v-5.785
				c-460.265-280.477-699.292-549.393-646.177-870.895c40.006-242.111,245.397-514.343,646.177-844.006v-6.336
				c-403.87,331.731-610.761,605.69-651.041,849.54C3295.334,7839.871,3536.225,8110.659,4000,8392.826z M4000,8482.595v-5.701
				c-517.36-299.545-790.224-581.624-733.829-922.955c42.816-259.178,275.165-552.854,733.829-914.569v-6.239
				c-461.765,363.719-695.598,659.094-738.699,919.997C3204.396,7897.534,3479.141,8181.403,4000,8482.595z M4000,8569.961v-5.647
				c-573.968-318.309-880.983-612.455-821.481-972.58c45.463-275.193,304.603-589.301,821.481-982.429v-6.155
				c-519.969,395.093-780.602,710.854-826.357,987.772C3113.632,7954.159,3422.556,8250.055,4000,8569.961z M4000,8655.646v-5.626
				l-36.843-20.033c-606.607-329.109-933.522-629.853-872.29-1000.468c47.96-290.343,333.704-623.98,909.133-1048.063v-6.082
				c-578.497,425.991-865.752,761.266-914.003,1053.33c-61.668,373.274,266.214,675.439,874.792,1005.62L4000,8655.646z
				 M4000,8741.546v-5.642c-39.799-22.01-81.299-44.68-124.507-68.123c-606.596-329.12-933.516-629.854-872.279-1000.47
				C3053.559,7362.6,3365.858,7010.188,4000,6555.59v-6.057c-637.238,456.481-951.031,810.511-1001.656,1116.972
				c-61.679,373.268,266.214,675.433,874.792,1005.608C3917.207,8696.027,3959.49,8719.131,4000,8741.546z M4000,8828.384v-5.681
				c-65.475-37.039-136.166-75.897-212.159-117.13c-606.602-329.117-933.522-629.86-872.279-1000.467
				c52.611-318.448,391.264-688.971,1084.438-1173.804v-6.026c-696.303,486.692-1036.422,858.807-1089.313,1179.016
				c-61.679,373.266,266.22,675.434,874.803,1005.611C3862.417,8751.647,3933.898,8790.947,4000,8828.384z M4000,8916.582v-5.731
				c-88.716-51.903-188.632-107.166-299.805-167.482c-606.608-329.12-933.528-629.86-872.296-1000.47
				c54.783-331.594,419.716-719.646,1172.101-1234.426v-5.967c-755.469,516.591-1121.902,906.224-1176.966,1239.581
				c-61.674,373.265,266.22,675.431,874.792,1005.608C3810.052,8808.586,3910.758,8864.298,4000,8916.582z M3988.62,9000h7.366
				l0.627-0.924c-108.201-66.356-236.127-137.658-384.077-217.924c-606.602-329.109-933.516-629.861-872.29-1000.465
				c56.871-344.214,447.99-749.293,1259.753-1293.782v-5.934c-814.859,546.275-1207.461,952.91-1264.623,1298.899
				c-61.668,373.273,266.22,675.433,874.798,1005.617C3755.667,8864.427,3881.729,8934.643,3988.62,9000z M3837.979,9000h9.74
				c-94.33-55.821-201.898-115.438-322.833-181.054c-606.608-329.12-933.522-629.854-872.285-1000.469
				c58.875-356.383,476.05-777.998,1347.4-1352.045v-5.9c-874.451,575.794-1293.109,998.95-1352.275,1357.133
				c-61.674,373.274,266.22,675.438,874.798,1005.614C3640.39,8887.226,3745.496,8945.446,3837.979,9000z M3685.316,9000h9.924
				c-77.963-44.817-163.947-92.231-258.014-143.27c-606.602-329.109-933.522-629.853-872.285-1000.462
				c60.823-368.124,503.932-805.865,1435.058-1409.305v-5.883c-934.233,605.165-1378.808,1044.431-1439.922,1414.376
				c-61.685,373.266,266.209,675.434,874.792,1005.608C3525.943,8910.48,3609.408,8956.477,3685.316,9000z M3530.986,9000h10.098
				c-59.62-33.523-123.448-68.548-191.509-105.475c-606.596-329.12-933.516-629.855-872.29-1000.47
				c61.338-371.206,511.287-813.164,1458.467-1424.469c21.914-14.148,43.236-28.318,64.249-42.491v-5.953
				c-21.87,14.783-44.086,29.553-66.941,44.302c-948.434,612.125-1399.077,1055.116-1460.639,1427.805
				c-61.674,373.269,266.214,675.434,874.792,1005.611C3412.351,8934.209,3473.605,8967.803,3530.986,9000z M3375.424,9000h10.199
				c-39.564-21.875-80.79-44.397-123.701-67.683c-606.608-329.112-933.522-629.861-872.285-1000.467
				c61.321-371.208,511.281-813.173,1458.456-1424.469c53.345-34.434,103.846-68.965,151.906-103.561v-6.096
				c-48.861,35.251-100.236,70.432-154.594,105.514c-948.434,612.125-1399.077,1055.122-1460.644,1427.802
				c-61.668,373.263,266.226,675.428,874.792,1005.603C3299.65,8958.398,3338.273,8979.493,3375.424,9000z M3218.877,9000h10.3
				c-17.99-9.829-36.289-19.782-54.906-29.891c-606.608-329.118-933.522-629.861-872.29-1000.47
				c61.327-371.211,511.292-813.17,1458.461-1424.475c86.869-56.062,166.516-112.385,239.559-168.828v-6.286
				c-73.759,57.16-154.286,114.199-242.251,170.975C2809.321,7153.15,2358.678,7596.147,2297.11,7968.828
				c-61.674,373.268,266.226,675.433,874.798,1005.617C3187.8,8983.062,3203.45,8991.581,3218.877,9000z M3061.838,9000h10.316
				c-597.299-326.033-918.582-624.929-857.826-992.566c61.327-371.214,511.292-813.175,1458.467-1424.475
				c123.034-79.407,231.504-159.337,327.205-239.385v-6.465c-96.306,80.829-205.671,161.535-329.903,241.717
				c-948.434,612.116-1399.071,1055.113-1460.639,1427.794C2148.551,8375.281,2467.662,8674.574,3061.838,9000z M2906.226,9000
				h10.025c-553.425-311.519-847.963-601.38-789.57-954.783c61.327-371.211,511.281-813.169,1458.45-1424.474
				c162.245-104.708,299.397-210.312,414.869-315.943v-6.734c-115.937,106.497-253.972,212.971-417.55,318.543
				c-948.439,612.119-1399.082,1055.116-1460.644,1427.796C2063.255,8398.749,2355.801,8689.019,2906.226,9000z M2762.615,9000
				c-510.694-297.337-779.617-577.912-723.597-916.988c61.327-371.208,511.292-813.164,1458.461-1424.469
				c205.514-132.643,370.732-266.713,502.521-400.461v-7.123c-132.091,134.73-298.154,269.814-505.208,403.445
				c-948.434,612.125-1399.082,1055.113-1460.65,1427.802c-56.166,339.951,210.843,620.924,718.665,917.794H2762.615z"/>
		</defs>
		<clipPath id="SVGID_00000021830105055785915780000012245559501492080309_">
			<use xlink:href="#SVGID_00000168795934123850947970000008959511226421756319_"  style="overflow:visible;"/>
		</clipPath>
		
			<linearGradient id="SVGID_00000144308451569451282670000002983664698481572265_" gradientUnits="userSpaceOnUse" x1="2263.928" y1="8692.7148" x2="4914.1343" y2="4791.8076">
			<stop  offset="0" style="stop-color:#FC67FA"/>
			<stop  offset="0.47" style="stop-color:#FFD4F7"/>
			<stop  offset="1" style="stop-color:#39D5FF"/>
		</linearGradient>
		
			<rect x="1977.976" y="6250.959" style="clip-path:url(#SVGID_00000021830105055785915780000012245559501492080309_);fill:url(#SVGID_00000144308451569451282670000002983664698481572265_);" width="2022.024" height="2749.041"/>
	</g>
</g>
</svg>
